<svg height="33" viewBox="0 0 34 33" width="34" xmlns="http://www.w3.org/2000/svg"><g fill="none" transform="translate(.824966 .252)"><path d="m28.29507 0h-24.25291714c-2.2292473 0-4.04215286 1.81290556-4.04215286 4.04215286v24.25291714c0 2.2292474 1.81290556 4.0421529 4.04215286 4.0421529h24.25291714c2.2292474 0 4.0421529-1.8129055 4.0421529-4.0421529v-24.25291714c0-2.2292473-1.8129055-4.04215286-4.0421529-4.04215286z" fill="#1976d2"/><path d="m27.2845318 16.1686115h-5.052691v-4.0421529c0-1.1156342.9054422-1.0105382 2.0210764-1.0105382h2.0210764v-5.0526911h-4.0421528c-3.3489237 0-6.0632293 2.71430564-6.0632293 6.0632293v4.0421529h-4.0421529v5.052691h4.0421529v11.1159204h6.0632293v-11.1159204h3.0316146z" fill="#fafafa"/></g></svg>