<svg height="24" viewBox="0 0 24 24" width="24" xmlns="http://www.w3.org/2000/svg"><g transform="translate(.782073 .365297)"><path d="m9.52510799 17.5124693-2.70741962 2.7074196c-1.12244086 1.1224409-2.94014704 1.1224409-4.0616455.0002244-1.12172285-1.1217228-1.12172285-2.9396085-.00022438-4.061107l5.41578163-5.4157816c1.12149846-1.12154336 2.93938418-1.12154336 4.06088258 0 .3738628.3738627.980049.3738627 1.3539118 0 .3738627-.3738628.3738627-.98004904 0-1.35391177-1.8692688-1.86926882-4.89943732-1.86926882-6.76870613 0l-5.41573676 5.41573677c-1.86926881 1.8692688-1.86926881 4.8994373 0 6.7687061 1.86904443 1.8702561 4.8994373 1.8702561 6.76969338 0l2.70741961-2.7074196c.3738628-.3738628.3738628-.980049 0-1.3539118-.3738627-.3738627-.98009388-.3738178-1.35395661.0000449z"/><path d="m21.5739353 1.40195161c-1.8692688-1.86926881-4.9004246-1.86926881-6.7696934 0l-3.2483112 3.24831118c-.3738627.37386273-.3738627.98004901 0 1.35391175.3738628.37386274.980049.37386274 1.3539118 0l3.2483112-3.24831118c1.1214984-1.12154334 2.9403265-1.12154334 4.0618698 0 1.1214985 1.12149846 1.1214985 2.93938415 0 4.06088261l-5.9566731 5.95671803c-1.1215434 1.1215434-2.9393842 1.1215434-4.0608827 0-.37386269-.3738627-.98004897-.3738627-1.35391171 0-.37386273.3738628-.37386273.9800491 0 1.3539118 1.86926881 1.8692688 4.89943731 1.8692688 6.76870611 0l5.9566732-5.9566732c1.8692688-1.86926882 1.8692688-4.89948218 0-6.76875099z"/></g></svg>