<svg height="40" viewBox="0 0 41 40" width="41" xmlns="http://www.w3.org/2000/svg"><g fill="none"><rect fill="#0077b5" height="39.145059" rx="8" width="39.145059" x=".92747" y=".341745"/><g fill="#fff" transform="translate(8.356135 7.681444)"><path d="m6.67245329 3.33622665c0 1.84254709-1.49367955 3.33622664-3.33622664 3.33622664-1.8425471 0-3.33622665-1.49367955-3.33622665-3.33622664 0-1.8425471 1.49367955-3.33622665 3.33622665-3.33622665 1.84254709 0 3.33622664 1.49367955 3.33622664 3.33622665z"/><path d="m5.91625393 8.89660439v14.73944931c.00117192.2196158-.0852414.4306431-.24011744.586354-.15487603.1557109-.36543567.2432574-.58505463.2432574h-3.51638288c-.21961712.0005897-.43041011-.0863905-.58570343-.2416838s-.24227354-.3660863-.24168379-.5857034v-14.74167351c0-.45695168.37043554-.82738421.82738722-.82738421h3.51638288c.45608286.00122604.82517207.37129971.82517207.82738421z"/><path d="m24.2966299 16.5699257v7.1350767c.0005897.2019207-.0793605.3957422-.2221407.5385223-.1427801.1427801-.3366016.2227304-.5385223.2221406h-3.7810569c-.2019207.0005898-.3957422-.0793605-.5385223-.2221406s-.2227303-.3366016-.2221373-.5385223v-6.9148858c0-1.0320061.3024845-4.519475-2.6978953-4.519475-2.3242379 0-2.7979821 2.3865141-2.8913964 3.458555v7.9758058c.0000444.4157959-.3337875.7545808-.749539.7606629h-3.65205606c-.20153556 0-.39478443-.080214-.53708279-.2229296-.14229836-.1427157-.22194375-.3361986-.221356-.5377333v-14.87289839c-.00058775-.2015347.07905764-.39501762.221356-.53773328.14229836-.14271565.33554723-.22292726.53708279-.2229264h3.65205606c.4201008 0 .7606597.34055894.7606597.76065968v1.28555929c.8629706-1.2944559 2.1418575-2.29309974 4.8708909-2.29309974 6.0452427 0 6.0096596 5.64489544 6.0096596 8.74536214z"/></g></g></svg>