<svg height="27" viewBox="0 0 33 27" width="33" xmlns="http://www.w3.org/2000/svg"><path d="m32.4681428 3.12302949c-1.207409.52963658-2.4939592.88069837-3.8352993 1.05115612 1.379896-.82387912 2.4330814-2.11854632 2.9282206-3.67904643-1.2865502.76705987-2.7070314 1.30887201-4.2208586 1.61123159-1.2216138-1.30075498-2.962718-2.10637077-4.8621044-2.10637077-3.6851342 0-6.6519107 2.99112766-6.6519107 6.65799854 0 .52760732.0446437 1.03492206.1542237 1.51788568-5.5337891-.26989144-10.43039093-2.92213286-13.71981965-6.96238738-.57428028.99636613-.91113726 2.13680965-.91113726 3.3645113 0 2.30523814 1.18711647 4.34870188 2.95663025 5.53175986-1.06941945-.0202926-2.11854632-.33076923-3.00736173-.81982063v.07305332c0 3.23463871 2.3072674 5.92137751 5.33289247 6.54030151-.54181214.1481359-1.13232649.21916-1.74516268.21916-.42614438 0-.85634727-.0243511-1.2601698-.1136385.86243505 2.6360073 3.30972131 4.5739496 6.21967862 4.6368566-2.26465297 1.7715431-5.14011287 2.8389333-8.25299606 2.8389333-.54587065 0-1.06941946-.0243511-1.59296826-.0913167 2.94851322 1.9014156 6.4428971 2.9870692 10.2112309 2.9870692 12.2486069 0 18.9451614-10.1462947 18.9451614-18.94110287 0-.29424255-.0101463-.5783388-.0243511-.86040579 1.3210475-.93751762 2.4310522-2.10840002 3.3361016-3.45582795z" fill="#03a9f4" transform="translate(.265929 .262878)"/></svg>